<svg width="101" height="75" viewBox="0 0 101 75" fill="none" xmlns="http://www.w3.org/2000/svg">
<path d="M50.8962 74.8196C40.348 74.8196 29.7998 75.0265 19.0448 74.8196C6.42839 74.406 1.0509 71.3036 0.430414 59.9281C-0.396893 44.0024 0.0167606 27.8699 1.25772 12.1511C1.8782 3.25752 6.42839 0.15512 15.322 0.15512C38.0729 -0.0517067 60.617 -0.0517067 83.368 0.15512C95.1571 0.15512 99.9141 4.49849 100.535 16.2876C101.155 30.145 101.155 44.0024 100.535 58.0667C100.121 69.4421 94.123 74.6128 82.5407 74.8196C72.1993 75.0265 61.6512 74.8196 50.8962 74.8196Z" fill="#2F80ED"/>
<ellipse cx="36.9778" cy="24.2727" rx="7.97784" ry="7.27273" fill="#F2F2F2"/>
<ellipse cx="64.9017" cy="24.2727" rx="7.97784" ry="7.27273" fill="#F2F2F2"/>
<path d="M33.6914 46.9779C36.7782 44.9306 40.3228 43.5299 44.072 42.8759C47.8213 42.2218 51.6827 42.3305 55.3806 43.1942C59.0784 44.0579 62.5215 45.6553 65.4638 47.8723C68.4061 50.0893 70.7752 52.8713 72.4017 56.0194L66.8841 58.3886C65.6401 55.9809 63.8284 53.8534 61.5782 52.1579C59.328 50.4624 56.6948 49.2407 53.8668 48.5802C51.0388 47.9197 48.0857 47.8365 45.2184 48.3368C42.3511 48.837 39.6403 49.9082 37.2796 51.4739L33.6914 46.9779Z" fill="#F2F2F2"/>
</svg>
