<svg width="120" height="120" viewBox="0 0 120 120" fill="none" xmlns="http://www.w3.org/2000/svg">
<rect width="120" height="120" fill="white"/>
<path d="M60.3483 92.845C51.0758 92.845 41.8033 93.0268 32.349 92.845C21.2584 92.4814 16.5312 89.7542 15.9858 79.7544C15.2585 65.7548 15.6222 51.5733 16.713 37.7555C17.2585 29.9375 21.2584 27.2103 29.0764 27.2103C49.0758 27.0285 68.8935 27.0285 88.893 27.2103C99.2563 27.2103 103.438 31.0284 103.983 41.3918C104.529 53.5733 104.529 65.7548 103.983 78.1181C103.62 88.1178 98.3473 92.6632 88.1657 92.845C79.0751 93.0268 69.8026 92.845 60.3483 92.845Z" fill="#2F80ED"/>
<path d="M77.4395 60.6641L48.8038 77.1969L48.8038 44.1314L77.4395 60.6641Z" fill="white"/>
</svg>
