<svg width="49" height="37" viewBox="0 0 49 37" fill="none" xmlns="http://www.w3.org/2000/svg">
<g clip-path="url(#clip0_44728_4301)">
<path d="M24.6003 36.2C19.5003 36.2 14.4003 36.3 9.20029 36.2C3.10029 36 0.500291 34.5 0.200291 29C-0.199709 21.3 0.000291169 13.5 0.600291 5.90002C0.900291 1.60002 3.10029 0.100024 7.40029 0.100024C18.4003 2.44156e-05 29.3003 2.44156e-05 40.3003 0.100024C46.0003 0.100024 48.3003 2.20002 48.6003 7.90002C48.9003 14.6 48.9003 21.3 48.6003 28.1C48.4003 33.6 45.5003 36.1 39.9003 36.2C34.9003 36.3 29.8003 36.2 24.6003 36.2Z" fill="#2F80ED"/>
<path d="M34 18.5L18.25 27.5933L18.25 9.40673L34 18.5Z" fill="white"/>
</g>
<defs>
<clipPath id="clip0_44728_4301">
<rect width="48.9" height="36.2" fill="white"/>
</clipPath>
</defs>
</svg>
